<svg xmlns="http://www.w3.org/2000/svg" viewBox="0 0 442 440" width="442" height="440">
	<style>
		tspan { white-space:pre }
		.shp0 { fill: none;stroke: #f83e3d;stroke-width: 1.009 } 
		.shp1 { fill: #ffba3f } 
		.shp2 { fill: #ffdea3 } 
		.shp3 { fill: #3b3c3f } 
	</style>
	<g id="Слой 2">
		<g id="&lt;Group&gt;">
			<path id="&lt;Path&gt;" class="shp0" d="M102.79 307.66C103.27 307.61 103.76 307.56 104.25 307.49" />
			<g id="&lt;Group&gt;">
				<path id="&lt;Compound Path&gt;" fill-rule="evenodd" class="shp1" d="M159.94 300.89C137.53 334.09 96.82 345.79 68.99 327.01C41.17 308.23 36.78 266.1 59.18 232.9C81.59 199.7 122.31 188 150.13 206.78C177.95 225.56 182.34 267.69 159.94 300.89ZM137.87 263.27C135.48 259.8 132.17 258.23 131.43 257.89C128.04 256.36 125.11 256.58 113.21 258.23C102.84 259.68 99.86 260.24 97.77 258.23C95.1 255.67 95.98 250.96 96.11 250.32C97.67 242.54 108.02 236.79 117.17 237.55C122.18 237.97 125.99 240.26 128.28 242.02C131.24 239.06 134.19 236.11 137.15 233.15C135.01 230.18 132.65 228.59 131.21 227.79C125.96 224.85 120.52 225.37 118.57 225.55C118 225.61 117.54 225.67 117.22 225.72C117.29 222.68 117.36 219.64 117.43 216.6C113.55 217.89 109.66 219.19 105.78 220.48C105.77 223.03 105.75 225.59 105.74 228.14C104.01 228.59 89.66 232.61 84.7 246.08C84.31 247.14 79.74 260.06 86.4 267.26C92.31 273.64 104.95 273.25 111.14 271.22C111.74 271.02 113.57 270.65 116.04 270.21C119.02 269.69 124.68 270.07 126.87 273.43C128.5 275.91 127.61 279.1 127.23 280.46C125.15 287.91 116.79 291.16 114.49 292.06C112.69 292.77 103.21 296.51 94.49 291.68C92.08 290.35 90.41 288.74 89.38 287.6C86.16 290.47 82.93 293.35 79.7 296.22C80.31 297.39 80.98 298.4 81.68 299.28C88.41 307.7 100.7 307.63 104.25 307.49C104.28 310.67 104.31 313.84 104.34 317.02C108.32 315.64 112.3 314.26 116.28 312.87C116.32 309.87 116.37 306.87 116.42 303.87C117.36 303.53 118.66 303.01 120.17 302.28C122.78 301.01 130.84 297.08 135.85 288.7C136.37 287.83 144.76 273.28 137.87 263.27Z" />
				<g id="&lt;Group&gt;">
					<path id="&lt;Path&gt;" class="shp2" d="M13.13 335.97C5.65 309.41 -2.15 269.29 1.47 220.7C3.97 187.1 11.23 158.95 18.49 137.72C102.4 121.98 186.32 106.23 270.23 90.49C254.75 125.45 234 184 231.09 259.17C227.96 339.67 246.68 403.29 260.53 439.94C251.39 423.91 239.75 400.9 229.89 371.85C225.07 357.62 209.02 307.6 209.05 239.76C209.07 213.17 211.56 176.32 222.4 133.55L39.26 164.53C36.39 172.68 33.68 181.12 31.17 189.85C15.84 243.1 11.86 292.99 13.13 335.97Z" />
					<path id="&lt;Path&gt;" class="shp1" d="M104.79 101.72L125.98 35.09L399.17 0.36C373.3 38.66 355.6 66.23 346.06 83.09C331.77 108.36 309.04 147.43 298.57 176.02C280.11 226.46 271.84 266.36 270.23 276.11C265.42 305.37 261.57 346.56 266.4 395.85C264.06 384.75 261.29 369.62 259.29 351.55C258.65 345.85 253.1 293.28 260.87 236.45C273.59 143.45 318.13 67.26 333.81 41.98L146.15 63.43L132.11 97.13L104.79 101.72Z" />
					<path id="&lt;Path&gt;" class="shp3" d="M359.6 89.21L441.3 77.21C420.53 101.92 399.14 130.2 378.32 162.26C333.47 231.38 304.56 297.72 285.55 353.21C288.1 333.62 291.88 312.73 297.36 290.84C315.9 216.78 347.12 158.07 375.6 115.43C364.3 117.5 353.01 119.57 341.72 121.64L359.6 89.21Z" />
				</g>
			</g>
		</g>
	</g>
</svg>